        <svg data-icon="stjean.me" viewBox="0 0 61.2 40" class="h-100">
          <g style="fill: #053cc6">
            <path d="M25.81,6.64l-1.1.19,2.47,2.79A10.53,10.53,0,0,0,25.81,6.64Z" style="fill: #053cc6"/>
            <path d="M24.86,8.26l2.05,2.31a15.14,15.14,0,0,1,.32,3.19,14.83,14.83,0,0,1-1.33,6.51l-2.47.39Z" style="fill: #053cc6"/>
            <path d="M24,21.91l1-.17q-0.26.36-.55,0.71Z" style="fill: #053cc6"/>
            <polygon points="19.91 17.25 23.28 10.43 22.19 19.88 19.91 17.25" style="fill: #053cc6"/>
            <path d="M22.58,22.34l1,1.08h0a12.9,12.9,0,0,1-6.61,3.08Z" style="fill: #053cc6"/>
            <polygon points="17.74 10.8 22.9 8.2 19.26 15.59 17.74 10.8" style="fill: #053cc6"/>
            <path d="M24,4.65a10,10,0,0,0-1.52-1.09l1.81,2.79,0.4-1A9,9,0,0,0,24,4.65Z" style="fill: #053cc6"/>
            <path d="M17.53,2.3a15,15,0,0,1,4,1.28l1.87,2.87L17.59,9.39Z" style="fill: #053cc6"/>
            <path d="M9.33,1.15L9.55,0H13c1.15,0,2.23,1,3.21,1.14l0.06,6.77Z" style="fill: #053cc6"/>
            <polygon points="19.27 18.53 21.7 21.34 15.56 25.89 19.27 18.53" style="fill: #053cc6"/>
            <polygon points="4.12 36.68 10 32.22 10 39.06 4.12 36.68" style="fill: #053cc6"/>
            <path d="M11.8,19h0.15a5.82,5.82,0,0,0,4.25-1.27,4.16,4.16,0,0,0,.82-0.9l1.22,0.74L13.88,26Z" style="fill: #053cc6"/>
            <polygon points="8.97 11.97 9.84 14.81 9.84 12.45 8.97 11.97" style="fill: #053cc6"/>
            <polygon points="3.25 15.6 7.63 12.62 8 16.05 8 19 10.42 19 12.23 25.17 3.25 15.6" style="fill: #053cc6"/>
            <polygon points="2.71 27.14 2.61 17.32 11.71 27 8 27 8 27.29 2.71 27.14" style="fill: #053cc6"/>
            <path d="M9.06,4.09l5.92,6a7.62,7.62,0,0,0-2.23-.1H9.46Z" style="fill: #053cc6"/>
            <polygon points="2.68 40 2.76 37.97 7.77 40 2.68 40" style="fill: #053cc6"/>
            <polygon points="2.69 28.46 8 28.61 8 30.56 1.88 35.46 2.69 28.46" style="fill: #053cc6"/>
            <polygon points="1 20.53 1 17.29 2.06 16.51 2.64 24.52 1 20.53" style="fill: #053cc6"/>
            <polygon points="1 7.89 1 7.34 8.19 3.17 8.69 10.68 1 7.89" style="fill: #053cc6"/>
            <polygon points="1 10.38 1 9.29 7.59 11.77 3.14 14.53 1 10.38" style="fill: #053cc6"/>
            <polygon points="1 0 6.83 0 7.48 1.08 1 5.83 1 0" style="fill: #053cc6"/>
            <polygon points="1 33.97 1 30.96 2.45 29.32 2.27 35.41 1 33.97" style="fill: #053cc6"/>
            <polygon points="0 40 0 37.27 1.42 37.52 1.35 40 0 40" style="fill: #053cc6"/>
            <polygon points="0 13.04 1.22 15.17 0 15.8 0 13.04" style="fill: #053cc6"/>
            <polygon points="1 23.64 2.87 27.61 1 29.22 1 23.64" style="fill: #053cc6"/>
            <polygon points="55.85 28.71 57.56 28.77 58.42 31.4 55.85 28.71" style="fill: #053cc6"/>
            <polygon points="56.65 37 55.2 28.52 59.38 32.17 61.2 37 56.65 37" style="fill: #053cc6"/>
            <polygon points="55 27.36 55.6 22.84 57.12 27.43 55 27.36" style="fill: #053cc6"/>
            <polygon points="51.03 37 49.59 32.95 53.8 27.38 55.31 37 51.03 37" style="fill: #053cc6"/>
            <polygon points="45.48 10.98 51.01 8.86 53.59 16.71 45.48 10.98" style="fill: #053cc6"/>
            <polygon points="44.2 0 48.46 0 48.72 1.03 50.59 7.16 44.69 8.76 44.2 0" style="fill: #053cc6"/>
            <polygon points="49.09 34 44.44 34 44.17 31.9 52.39 29.51 49.19 33.77 49.09 34" style="fill: #053cc6"/>
            <polygon points="46.28 19.81 54.52 19.54 54.66 19.97 53.76 26.65 46.28 19.81" style="fill: #053cc6"/>
            <path d="M45.34,17.85c-0.07-.23-0.12-0.43-0.16-0.62l-0.33-5.08,8.65,6.11-8,.25Z" style="fill: #053cc6"/>
            <polygon points="44.66 27 47.25 27 46.34 22.59 52.89 28.12 44.16 30.96 44.66 27" style="fill: #053cc6"/>
            <polygon points="40.25 0 42.88 0 43.24 5.89 40.25 0" style="fill: #053cc6"/>
            <path d="M42.82,9.94l0.86,0.46L42.35,7.77C42.46,8.31,42.62,9,42.82,9.94Z" style="fill: #053cc6"/>
            <path d="M34.54,4.06L37.15,0h1.62l2.76,6.35L41.5,7c-0.06.31-.13,0.45-0.21,0.87Z" style="fill: #053cc6"/>
            <polygon points="37.49 25.65 38.23 25 43.33 25 42.86 29.38 37.49 25.65" style="fill: #053cc6"/>
            <path d="M36.37,20L38.54,20l-0.07.28c-0.3,1.15-.63,2.41-1,3.76l-0.58.46Z" style="fill: #053cc6"/>
            <path d="M39.44,16.47l-0.56,2.2-1.63,0Z" style="fill: #053cc6"/>
            <path d="M44.22,15.58L43.94,11.2l-0.65.66c0,0.18.09,0.37,0.14,0.56C43.71,13.58,44,14.64,44.22,15.58Z" style="fill: #053cc6"/>
            <polygon points="43.34 30.76 42.52 32.53 43.68 32.53 43.34 30.76" style="fill: #053cc6"/>
            <polygon points="37.77 31 37.2 26.38 42.57 29.76 41.83 31 37.77 31" style="fill: #053cc6"/>
            <path d="M34.36,6.35L41,9.91c-0.13.6-.28,1.29-0.45,2-0.12.53-.28,1.2-0.48,2l-4,4.05Z" style="fill: #053cc6"/>
            <polygon points="30.03 28.74 35.81 27.41 36.45 34 35.34 34 34.52 36.24 30.03 28.74" style="fill: #053cc6"/>
            <polygon points="26.79 35.73 29.16 29.82 34.07 37.18 33.55 39.09 26.79 35.73" style="fill: #053cc6"/>
            <polygon points="31.57 13.83 33.33 8.42 34.65 17.3 31.57 13.83" style="fill: #053cc6"/>
            <polygon points="29.06 40 27.71 37.81 32.12 40 29.06 40" style="fill: #053cc6"/>
            <polygon points="36.48 1.84 35.13 1.84 34.26 4.54 36.48 1.84" style="fill: #053cc6"/>
            <polygon points="31.1 15.29 34.33 18.93 29.67 19.67 31.1 15.29" style="fill: #053cc6"/>
            <polygon points="35.17 21.14 35.66 25.3 30.83 27.04 35.17 21.14" style="fill: #053cc6"/>
            <polygon points="27.64 25.92 29.22 21.08 34.15 20.3 28.96 27.36 27.64 25.92" style="fill: #053cc6"/>
            <polygon points="23.11 40 23.57 38.53 25.74 37.09 27.5 40 23.11 40" style="fill: #053cc6"/>
            <polygon points="24.84 34.54 26.64 29.01 28.04 29.05 25.63 35.05 24.84 34.54" style="fill: #053cc6"/>
          </g>
        </svg>