<svg width="70.4722px" height="46.0004px" viewBox="0 0 70.4722 46.0004" version="1.1"
    xmlns="http://www.w3.org/2000/svg" xmlns:xlink="http://www.w3.org/1999/xlink">
    <g id="Design" stroke="none" stroke-width="1" fill="none" fill-rule="evenodd">
        <g id="Desktop-HD" transform="translate(-364, -39.9996)" fill="#FFFFFF">
            <g id="PA/white" transform="translate(364, 39.9996)">
                <path
                    d="M3.4367,43.6764 L9.1867,46.0004 L3.3437,46.0004 L3.4367,43.6764 Z M0,42.8114 L1.762,43.1244 L1.826,46.0004 L0,46.0004 L0,42.8114 Z M29.7959,42.6494 L31.8169,46.0004 L26.7839,46.0004 L27.3049,44.2874 L29.7959,42.6494 Z M32.0581,43.4894 L37.1101,46.0004 L33.5991,46.0004 L32.0581,43.4894 Z M33.7137,34.2603 L39.3477,42.7103 L38.7557,44.8993 L30.9957,41.0393 L33.7137,34.2603 Z M11.0001,37.0172 L11.0001,44.8662 L4.2511,42.1392 L11.0001,37.0172 Z M61.983,31.8394 L63.715,43.0004 L58.807,43.0004 L57.164,38.134 L56.6881,38.7654 L56.5841,39.0004 L51.2401,39.0004 L50.9391,36.6204 L60.3591,33.8954 L58.569,36.269 L61.983,31.8394 Z M63.5892,33.0224 L68.3772,37.3324 L70.4722,43.0004 L65.2512,43.0004 L63.5892,33.0224 Z M41.3448,31.4666 L42.0758,39.0006 L40.8018,39.0006 L39.8708,41.6006 L34.7138,33.0236 L41.3448,31.4666 Z M3.1375,32.7114 L9.0005,32.8804 L9.0005,35.1104 L2.573,40.342 L2.558,40.6759 L2.387,40.494 L2.0935,40.7334 L2.156,40.25 L1,39.0299 L1,35.5779 L2.873,33.6899 L2.801,35.297 L3.1375,32.7114 Z M30.826,33.3413 L32.435,33.3763 L29.669,40.2633 L28.766,39.6753 L30.826,33.3413 Z M49.9787,35.3436 L50.3777,37.3776 L49.0477,37.3776 L49.9787,35.3436 Z M64.3316,32.9975 L66.2926,33.0675 L67.2816,36.0745 L64.3316,32.9975 Z M42.9345,30.5054 L49.0995,34.4834 L48.2555,36.0004 L43.5995,36.0004 L42.9345,30.5054 Z M53.418,25.9594 L60.932,32.3064 L50.922,35.5544 L51.501,31.0004 L54.463,31.0004 L53.418,25.9594 Z M49.9704,29.0002 L49.4344,33.9562 L43.2704,29.6102 L44.1194,29.0002 L49.9704,29.0002 Z M1,27.1789 L3.141,31.7369 L1,33.5769 L1,27.1789 Z M64.0502,26.2615 L65.7852,31.5295 L63.3552,31.4455 L64.0502,26.2615 Z M39.4363,23.3528 L33.4873,31.4448 L31.9803,29.7918 L33.7833,24.2438 L39.4363,23.3528 Z M3.1553,19.9106 L13.7093,31.0006 L9.0003,31.0006 L9.0003,31.3626 L3.1593,31.1946 L3.1553,19.9106 Z M40.6075,24.3153 L41.1755,29.0823 L35.6385,31.0803 L40.6075,24.3153 Z M62.8112,22.4785 L62.9692,22.9635 L61.9332,30.6335 L53.3512,22.7795 L62.8112,22.4785 Z M26.1702,25.6843 L27.3042,26.9233 C27.2982,26.9283 27.2932,26.9333 27.2882,26.9383 C25.3582,28.7213 22.8142,29.9043 19.7112,30.4653 L26.1702,25.6843 Z M19.7987,19.3994 L21.2017,20.2254 L16.1957,29.9814 L13.8067,22.0004 L13.9767,22.0004 C15.9917,22.0004 17.6327,21.6324 18.8547,20.4704 C19.2207,20.1224 19.5367,19.8374 19.7987,19.3994 Z M22.3701,21.3182 L25.1621,24.5422 L18.1221,29.7552 L22.3701,21.3182 Z M8.7963,14.5357 L9.0003,18.4667 L9.0003,22.0007 L12.2223,22.0007 L14.3023,29.0057 L4.0013,17.9517 L8.7963,14.5357 Z M2.423,18.9943 L2.986,28.1873 L1,23.6153 L1,19.8913 L2.423,18.9943 Z M44.4725,22.9924 L44.3895,23.3104 C44.0435,24.6334 43.6655,26.0784 43.2555,27.6254 L42.5955,28.1494 L41.9895,23.0524 L44.4725,22.9924 Z M28.9841,24.9999 C28.7871,25.2789 28.5771,25.5509 28.3561,25.8159 L27.7851,25.1899 L28.9841,24.9999 Z M28.7853,9.5342 L31.1383,12.1842 C31.3793,13.2952 31.5003,14.5242 31.5003,15.8392 C31.5003,18.7152 30.9883,21.2262 29.9763,23.3082 L27.1383,23.7572 L28.7853,9.5342 Z M26.9702,12.0232 L25.7212,22.8602 L23.1112,19.8522 L26.9702,12.0232 Z M35.9406,17.598 L39.6516,21.781 L34.3066,22.627 L35.9406,17.598 Z M45.5087,18.9483 C45.37355,19.477 45.0006975,20.9268875 44.8918826,21.349958 L44.8652579,21.453469 C44.86292,21.4625575 44.8617,21.4673 44.8617,21.4673 L42.9897,21.5113 L45.5087,18.9483 Z M51.7043,13.9921 L61.6223,21.0021 L52.4743,21.2871 L52.2753,20.5311 C52.1983,20.2651 52.1373,20.0371 52.0863,19.8241 L51.7043,13.9921 Z M39.6841,7.3461 L47.2991,11.4271 C47.1521,12.1151 46.9791,12.9011 46.7851,13.7681 C46.6451,14.3711 46.4631,15.1391 46.2381,16.0561 L41.6631,20.7031 L39.6841,7.3461 Z M38.5009,9.718 L40.0139,19.903 L36.4849,15.926 L38.5009,9.718 Z M58.7737,10.2242 L61.7407,19.2312 L52.4317,12.6552 L58.7737,10.2242 Z M0,15.0239 L1.395,17.4629 L0,18.1849 L0,15.0239 Z M26.5428,9.4646 L22.3598,17.9426 L20.6188,12.4496 L26.5428,9.4646 Z M50.6667,12.9054 L50.9957,17.9284 C50.7137,16.8484 50.4087,15.6364 50.0807,14.3064 C50.0257,14.0874 49.9787,13.8764 49.9237,13.6644 L50.6667,12.9054 Z M10.5653,13.7977 L11.5593,14.3457 L11.5593,17.0517 L10.5653,13.7977 Z M1,10.7201 L8.77,13.5671 L3.564,16.7311 L1,11.9661 L1,10.7201 Z M9.451,3.6971 L9.924,12.3121 L1,9.1121 L1,8.4831 L9.451,3.6971 Z M10.6697,4.9888 L17.4617,11.9948 C16.7257,11.7528 15.8687,12.0008 14.8997,12.0008 L11.1227,12.0008 L10.6697,4.9888 Z M48.8519,8.9704 L50.3779,11.9984 L49.3919,11.4664 C49.1569,10.4334 48.9769,9.5964 48.8519,8.9704 Z M29.873,7.68 C30.554,8.697 31.078,9.839 31.438,11.099 L28.606,7.899 L29.873,7.68 Z M20.3811,2.7039 C22.1171,3.0169 23.6651,3.5089 24.9931,4.1709 L27.1341,7.4679 L20.4531,10.8379 L20.3811,2.7039 Z M55.8595,0.0004 L56.1555,1.2084 L58.3045,8.2624 L51.5345,10.0694 L50.9755,0.0004 L55.8595,0.0004 Z M15.1729,0.0009 C16.4899,0.0009 17.7259,1.2079 18.8549,1.3399 L18.9249,9.1109 L10.9769,1.3489 L11.2289,0.0009 L15.1729,0.0009 Z M44.7428,0 L47.9138,7.315 L47.8678,8.1 C47.8028,8.45 47.7208,8.61 47.6228,9.093 L39.993,4.749 L39.5655,5.269 L40.5675,2.179 L41.489,2.179 L42.8828,0 L44.7428,0 Z M26.1096,4.1436 C26.7436,4.5196 27.3306,4.9336 27.8546,5.3956 C28.1286,5.6306 28.3946,5.8886 28.6446,6.1546 L28.1836,7.3436 L26.1096,4.1436 Z M49.4561,0.0004 L49.8641,6.7564 L46.4431,0.0004 L49.4561,0.0004 Z M8.11,0.0004 L8.643,1.2674 L1,6.7554 L1,0.0004 L8.11,0.0004 Z"
                    id="Combined-Shape"></path>
            </g>
        </g>
    </g>
</svg>